<?xml version="1.0" standalone="no"?>
<!DOCTYPE svg PUBLIC "-//W3C//DTD SVG 20010904//EN"
 "http://www.w3.org/TR/2001/REC-SVG-20010904/DTD/svg10.dtd">
<svg version="1.0" xmlns="http://www.w3.org/2000/svg"
 width="527pt" height="1080pt" viewBox="696 228 527 1080"
 preserveAspectRatio="xMidYMid meet">

<g transform="translate(0.000000,1536.000000) scale(0.100000,-0.100000)"
fill="#C97B3D" stroke="none">
<path d="M9400 12668 c-41 -5 -76 -11 -78 -13 -2 -2 1 -66 7 -142 6 -76 16
-201 21 -278 5 -77 12 -151 16 -165 3 -14 8 -74 10 -135 6 -174 12 -282 24
-393 7 -57 9 -106 7 -109 -3 -2 -8 26 -12 64 -4 37 -13 96 -21 131 -8 35 -14
91 -14 125 -1 34 -6 82 -11 107 -6 25 -12 65 -13 90 -9 167 -20 267 -37 345
-11 50 -19 104 -18 120 1 29 -21 216 -26 223 -5 5 -149 -39 -158 -48 -5 -4 -2
-74 7 -154 9 -80 16 -170 16 -200 0 -29 6 -69 14 -87 7 -19 16 -87 20 -152 3
-65 11 -139 17 -165 6 -26 13 -85 14 -132 4 -106 22 -307 34 -380 5 -30 9 -68
9 -85 0 -16 -6 2 -13 40 -7 39 -17 97 -23 130 -6 33 -16 99 -21 147 -6 48 -17
100 -25 116 -9 17 -11 33 -6 38 6 6 5 35 -1 74 -6 36 -12 95 -14 131 -2 37
-11 91 -19 120 -9 30 -21 92 -26 139 -14 120 -55 378 -62 385 -3 3 -26 -4 -52
-17 -32 -15 -46 -28 -46 -42 -1 -12 63 -578 141 -1258 79 -681 140 -1240 137
-1244 -4 -3 -54 -16 -113 -30 -331 -74 -684 -246 -943 -456 -465 -379 -768
-913 -846 -1493 -22 -161 -27 -245 -15 -245 14 0 96 42 264 137 627 355 1261
896 1684 1438 103 131 249 349 316 473 28 50 52 92 55 92 3 0 29 -42 57 -94
286 -513 789 -1059 1384 -1503 261 -194 532 -367 762 -484 l117 -60 0 63 c-1
147 -48 398 -110 588 -260 784 -917 1376 -1720 1548 -70 15 -86 22 -88 38 -2
11 60 568 138 1237 77 669 140 1229 140 1245 0 23 -7 32 -46 50 -26 13 -49 20
-52 17 -7 -7 -48 -265 -62 -385 -5 -47 -17 -109 -26 -139 -8 -29 -17 -83 -19
-120 -2 -36 -8 -95 -14 -131 -6 -39 -7 -68 -1 -74 5 -5 3 -21 -6 -38 -8 -16
-19 -68 -25 -116 -5 -48 -15 -114 -21 -147 -6 -33 -16 -91 -23 -130 -7 -38
-13 -56 -13 -40 0 17 4 55 9 85 12 73 30 274 34 380 1 47 8 106 14 132 6 26
14 100 17 165 4 65 13 133 20 152 8 18 14 58 14 87 0 30 7 120 16 200 9 80 12
150 7 154 -9 9 -153 53 -158 48 -5 -7 -27 -194 -26 -223 1 -16 -7 -70 -18
-120 -17 -78 -28 -178 -37 -345 -1 -25 -7 -65 -13 -90 -5 -25 -10 -73 -11
-107 0 -34 -6 -90 -14 -125 -8 -35 -17 -94 -21 -131 -4 -38 -9 -66 -12 -63 -3
2 0 51 7 108 12 106 18 203 24 388 2 58 7 123 11 145 3 22 11 99 16 170 5 72
14 192 20 268 6 76 9 140 7 143 -9 8 -238 27 -245 20 -7 -7 -9 -46 -6 -151 3
-101 -5 -385 -10 -410 -4 -16 -8 -126 -9 -242 -1 -117 -6 -213 -10 -213 -4 0
-9 37 -10 83 -5 244 -6 344 -5 462 1 72 1 150 0 175 -2 60 -10 272 -12 288 -1
14 -58 14 -171 0z"/>
<path d="M9569 9663 c-294 -487 -783 -1005 -1354 -1433 -306 -230 -625 -427
-875 -541 l-125 -57 -17 -99 c-49 -278 -47 -546 7 -983 43 -346 55 -496 61
-735 8 -285 -14 -633 -56 -899 l-9 -58 166 -176 c577 -612 1182 -1387 1474
-1887 l64 -110 8 220 c10 271 2 1316 -13 1595 -19 378 -49 724 -82 942 l-11
78 -474 306 c-260 169 -473 310 -473 313 0 3 -9 182 -20 396 -25 492 -25 448
3 434 12 -7 187 -110 390 -230 202 -121 535 -319 740 -440 204 -122 378 -227
385 -234 11 -10 6 -69 -27 -326 -23 -173 -57 -443 -77 -601 l-37 -287 114
-108 c63 -59 149 -141 192 -182 l77 -75 95 92 c52 50 138 133 191 184 l95 92
-35 276 c-19 151 -54 422 -77 603 -23 180 -40 329 -38 331 3 3 587 350 1333
793 115 68 211 121 214 119 5 -6 -23 -655 -34 -778 l-6 -67 -121 -79 c-67 -44
-279 -182 -472 -306 l-350 -227 -12 -82 c-33 -219 -65 -593 -83 -972 -13 -254
-20 -1290 -11 -1575 l6 -205 57 100 c277 489 967 1367 1539 1960 l107 110 -14
90 c-38 263 -49 422 -49 750 0 343 3 390 55 825 56 470 60 664 19 952 -11 76
-22 143 -24 150 -3 7 -31 24 -63 37 -355 149 -893 506 -1317 876 -372 323
-764 773 -957 1098 -22 37 -44 67 -48 67 -5 0 -19 -17 -31 -37z"/>
</g>
</svg>
